<?xml version="1.0" encoding="utf-8"?>
<!-- Generator: Adobe Illustrator 24.0.3, SVG Export Plug-In . SVG Version: 6.00 Build 0)  -->
<svg version="1.1" id="Layer_1" xmlns="http://www.w3.org/2000/svg" xmlns:xlink="http://www.w3.org/1999/xlink" x="0px" y="0px"
	 viewBox="0 0 225.9 45.8" style="enable-background:new 0 0 225.9 45.8;" xml:space="preserve">
<style type="text/css">
	.st0{fill:#231F52;}
	.st1{fill:#05887A;}
	.st2{fill:#87C35F;}
	.st3{fill:#68C7D7;}
	.st4{fill:#24767B;}
	.st5{fill:#2377B5;}
	.st6{fill:#069666;}
	.st7{fill:#60B046;}
	.st8{fill:#ECE843;}
	.st9{fill:#D8DF25;}
	.st10{fill:#204780;}
	.st11{fill:#81BC42;}
	.st12{fill:#244087;}
	.st13{fill:#224480;}
	.st14{fill:#148745;}
	.st15{fill:#298DC9;}
	.st16{fill:#17464A;}
	.st17{fill:#2B67A8;}
	.st18{fill:#25AC6D;}
	.st19{fill:#276780;}
	.st20{fill:#2783C1;}
	.st21{fill:#2894CE;}
</style>
<g id="VitalEngine_Horizontal_4c" transform="translate(-135.213 -220.46)">
	<g id="Group_3" transform="translate(188.083 239.605)">
		<g id="Group_2" transform="translate(67.686)">
			<g id="Group_1">
				<path id="Path_1" class="st0" d="M14.4,22H0V0.9h14.4v2.9h-11v5.8h9.1v2.9H3.4v6.6h11V22z"/>
				<path id="Path_2" class="st0" d="M18.2,22V5.7h3.1v2c2-1.7,2.7-2,4.1-2h2.6c1-0.1,2,0.2,2.8,0.9c0.6,0.6,1,1.4,1,3.7V22h-3.1
					V10.5c0.1-0.6-0.1-1.1-0.4-1.6c-0.3-0.3-0.6-0.5-1.7-0.5h-2.1c-1.1,0-2.1,0.4-3,0.9V22L18.2,22L18.2,22z"/>
				<path id="Path_3" class="st0" d="M39.8,26.5c-1,0.1-1.9-0.2-2.7-0.8c-0.6-0.6-0.9-1.4-0.9-3.2h3.1c0,0.7,0.1,1,0.3,1.2
					c0.2,0.2,0.4,0.2,1.2,0.2h3.9c0.9,0,1.2-0.1,1.4-0.3c0.2-0.2,0.3-0.5,0.3-2v-3.4c-2.1,1.7-2.7,2-4.1,2h-2.2
					c-1.7,0-2.6-0.3-3.3-1c-0.9-0.9-1.3-1.8-1.3-6.3s0.4-5.4,1.3-6.3c0.7-0.7,1.6-1,3.3-1h2.2c1.3,0,2,0.3,4.1,2v-2h3.1v15.5
					c0,2.9-0.3,3.7-1,4.4c-0.5,0.5-1.3,0.9-3.2,0.9L39.8,26.5L39.8,26.5z M46.6,16.5V9.4c-1-0.6-2-0.9-3.2-1h-2.3
					c-1,0-1.4,0.1-1.7,0.4C39,9.3,38.9,9.7,38.9,13s0.1,3.6,0.6,4.1c0.3,0.3,0.7,0.4,1.7,0.4h2.4C44.7,17.4,45.7,17.1,46.6,16.5
					L46.6,16.5z"/>
				<path id="Path_4" class="st0" d="M57.7,3.4h-3.6V0h3.6V3.4z M57.5,22h-3.1V5.7h3.1V22z"/>
				<path id="Path_5" class="st0" d="M62.1,22V5.7h3.1v2c2-1.7,2.7-2,4.1-2h2.6c1-0.1,2,0.2,2.8,0.9c0.6,0.6,1,1.4,1,3.7V22h-3.1
					V10.5c0.1-0.6-0.1-1.1-0.4-1.6c-0.3-0.3-0.6-0.5-1.7-0.5h-2.1c-1.1,0-2.1,0.4-3,0.9V22L62.1,22L62.1,22z"/>
				<path id="Path_6" class="st0" d="M82.7,14.9c0,3.2,0.2,3.8,0.5,4.1s0.5,0.3,1.4,0.3h4.2c0.7,0,0.9-0.1,1.1-0.3
					c0.2-0.2,0.3-0.6,0.3-2h3c-0.1,2.5-0.3,3.4-1.1,4.2c-0.7,0.6-1.7,0.9-2.7,0.8h-5.3c-1.2,0.1-2.3-0.2-3.2-0.9
					c-1.1-1.1-1.4-2.3-1.4-7.2s0.3-6.1,1.4-7.2c0.7-0.7,1.6-0.9,3.2-0.9h4.5c1.2-0.1,2.3,0.2,3.2,0.9c1.1,1.1,1.4,2.3,1.4,7.1v0.8
					c0,0.2-0.1,0.4-0.4,0.4L82.7,14.9L82.7,14.9z M82.7,12.4h7.4c0-2.7-0.2-3.3-0.5-3.6c-0.2-0.2-0.5-0.3-1.4-0.3h-3.7
					c-0.9,0-1.2,0.1-1.4,0.3C82.9,9.1,82.8,9.6,82.7,12.4z"/>
			</g>
		</g>
		<path id="Path_7" class="st0" d="M20.8,3.4h3.6V0h-3.6V3.4z M21,22h3.1V5.7H21L21,22z M9.4,18.7H9L3.6,0.9H0l6.4,20.4
			c0.2,0.7,0.5,0.8,1.2,0.8h2.9c0.8,0,1-0.1,1.2-0.8l6.4-20.4h-3.4L9.4,18.7z M49.1,5.7H44c-1-0.1-2,0.2-2.7,0.9
			c-0.6,0.6-0.9,1.4-1,4h3.1c0.1-1.2,0.1-1.8,0.4-2c0.2-0.2,0.5-0.3,1.3-0.3h3.2c0.9,0,1.2,0.1,1.4,0.3c0.2,0.2,0.4,0.7,0.4,2.6v1.8
			c-1.3-0.3-2.7-0.5-4-0.5c-3.9,0-4.7,0.5-5.4,1.2c-0.6,0.6-1,1.9-1,3.8c0,2,0.4,3,1,3.6c0.7,0.7,1.4,0.8,2.9,0.8h2.5
			c1.4,0,2-0.4,4-2v2h3.1V11c0-2.9-0.2-3.7-0.9-4.4C51.7,6.1,50.9,5.7,49.1,5.7z M50.1,18.3c-1,0.7-2.2,1-3.4,1h-2.3
			c-0.7,0-1.1,0-1.3-0.2c-0.2-0.2-0.3-0.8-0.3-2c0-1.1,0.1-1.4,0.4-1.7c0.3-0.3,0.7-0.4,2.7-0.4h4.2L50.1,18.3L50.1,18.3z M33,1.7
			h-3.2v4h-2.8v2.7h2.8v10.4c-0.1,0.9,0.1,1.8,0.7,2.5c0.7,0.6,1.6,0.9,2.4,0.8c0.7,0,1.4-0.1,2-0.2l1.8-0.5v-2.1h-2.5
			c-0.8,0-1.1,0-1.2-0.1C33.1,18.9,33,18.7,33,18V8.5h3.9V5.7H33L33,1.7z M62.2,19.2c-0.8,0-1.1,0-1.2-0.1c-0.1-0.1-0.2-0.4-0.2-1.1
			V8.5l0,0V0.3h-3.1v8.2h0v10.4c-0.1,0.9,0.1,1.8,0.7,2.5c0.7,0.6,1.6,0.9,2.4,0.8c0.7,0,1.4-0.1,2-0.2l1.8-0.5v-2.1H62.2L62.2,19.2
			z"/>
	</g>
	<g id="Group_4" transform="translate(135.213 220.46)">
		<path id="Path_8" class="st1" d="M29.6,25.9l-4.1,7.6L17,18.4h8.4L29.6,25.9z"/>
		<path id="Path_9" class="st2" d="M25.4,18.4l5-9.2h10.1l-4.2,7.6c0,0-1,0-1.5,0c-0.2,0-0.4,0.1-0.4,0.2c-0.2,0.4-0.8,1.3-0.8,1.3
			L25.4,18.4z"/>
		<path id="Path_10" class="st3" d="M11.9,9.3l-1.8-3.2L9.2,7.5L5.1,0l9.8,0c0.2,0,0.4,0.1,0.5,0.3c1.3,2.3,5,8.9,5,8.9L11.9,9.3z"
			/>
		<path id="Path_11" class="st4" d="M23.6,36.6l1.8,3.2l0.8-1.4l4.2,7.4c0,0,0,0-0.2,0c-3.2,0-6.4,0-9.7,0c-0.1,0-0.3-0.1-0.3-0.2
			l-5-9L23.6,36.6z"/>
		<path id="Path_12" class="st5" d="M5.1,0l4.2,7.5l-1,1.8c0,0-7.7,0-8.3,0c0-0.1,0-0.1,0-0.2c0.3-0.5,4.1-7.5,4.9-8.9
			C4.9,0.2,4.9,0.1,5.1,0C5,0,5,0,5.1,0z"/>
		<path id="Path_13" class="st6" d="M40.6,27.5l-5.1,9.1h-8.3l5-9.1L40.6,27.5z"/>
		<path id="Path_14" class="st7" d="M30.4,9.2c0,0,4.4-8,4.8-8.8c0.1-0.1,0.2-0.2,0.3-0.3l5.1,9.1L30.4,9.2z"/>
		<path id="Path_15" class="st8" d="M40.6,9.2c0,0,5-9,5.1-9.1c1.5,2.8,5,9.1,5,9.1c0,0,0,0,0,0C50.6,9.2,43.9,9.2,40.6,9.2z"/>
		<path id="Path_16" class="st9" d="M45.7,0.1l-5.1,9.1l-5.1-9.1c0,0,0-0.1,0.3-0.1c3.2,0,6.3,0,9.5,0C45.5,0,45.6,0,45.7,0.1z"/>
		<path id="Path_17" class="st10" d="M27.2,36.7h8.3c0,0-4.6,8.4-5,9c0,0-0.1,0.1-0.1,0.1l-4.2-7.4L27.2,36.7z"/>
		<path id="Path_18" class="st11" d="M50.7,9.2c0,0-2.8,5.2-4,7.4c-0.1,0.2-0.2,0.3-0.4,0.2c-0.5,0-1.5,0-1.5,0l-4.2-7.6L50.7,9.2z"
			/>
		<path id="Path_19" class="st12" d="M19.5,29.2l-4.2,7.4l-5.1-9.1l8.3,0L19.5,29.2z"/>
		<path id="Path_20" class="st13" d="M25.4,18.4H17l-0.9-1.6l4.2-7.6L25.4,18.4z"/>
		<path id="Path_21" class="st14" d="M40.6,27.5L36.4,20c0.1-0.1,0.2-0.1,0.3-0.1h8.1L40.6,27.5z"/>
		<path id="Path_22" class="st7" d="M44.8,16.8h-8.4l4.2-7.6L44.8,16.8z"/>
		<path id="Path_23" class="st15" d="M16.1,16.8l-4.2-7.5l8.4-0.1L16.1,16.8z"/>
		<path id="Path_24" class="st16" d="M36.4,20l4.2,7.5l-8.4,0c0,0,2.9-5.3,4-7.3C36.3,20.1,36.3,20.1,36.4,20z"/>
		<path id="Path_25" class="st17" d="M14.4,20c0.2,0.4,4.2,7.5,4.2,7.5l-8.3,0C10.2,27.5,14.3,20.1,14.4,20z"/>
		<path id="Path_26" class="st18" d="M25.4,18.4l8.3,0l-4.1,7.5L25.4,18.4z"/>
		<path id="Path_27" class="st19" d="M19.5,29.2l4.1,7.4l-8.3,0L19.5,29.2z"/>
		<path id="Path_28" class="st20" d="M6,20l4.2,7.5l4.2-7.5L6,20z"/>
		<path id="Path_29" class="st21" d="M0,9.2l8.3,0l-4.1,7.5L0,9.2z"/>
		<path id="Path_30" class="st3" d="M14.4,20L6,20l4.1-7.6L14.4,20z"/>
	</g>
</g>
<g>
	<path class="st0" d="M218.2,16.4h-2v5.5h-1.4v-5.5h-2v-1.1h5.4V16.4z"/>
	<path class="st0" d="M220.7,15.3l1.7,4.8l1.7-4.8h1.8v6.6h-1.4v-1.8l0.1-3.1l-1.8,4.9h-0.9l-1.8-4.9l0.1,3.1v1.8h-1.4v-6.6H220.7z"
		/>
</g>
</svg>
